<?xml version="1.0" encoding="UTF-8"?>
<svg version="1.1" xmlns="http://www.w3.org/2000/svg" width="1024" height="1024">
<path d="M0 0 C7.68768101 0.49777683 15.33017939 0.86031097 23.03857422 0.71191406 C23.03857422 1.04191406 23.03857422 1.37191406 23.03857422 1.71191406 C23.67956055 1.80166504 24.32054687 1.89141602 24.98095703 1.98388672 C91.51930124 11.43388502 154.67712375 34.1585836 210.03857422 72.71191406 C210.9108667 73.31616211 210.9108667 73.31616211 211.80078125 73.93261719 C224.46127179 82.73324459 236.4886232 92.20178195 248.06567383 102.38500977 C248.65743408 102.90538818 249.24919434 103.4257666 249.85888672 103.96191406 C250.40963867 104.44660156 250.96039062 104.93128906 251.52783203 105.43066406 C252.79167204 106.50251804 254.12358761 107.49340281 255.46826172 108.46191406 C255.98646484 108.87441406 256.50466797 109.28691406 257.03857422 109.71191406 C257.03857422 110.37191406 257.03857422 111.03191406 257.03857422 111.71191406 C257.60535889 111.95345215 258.17214355 112.19499023 258.75610352 112.44384766 C261.49186039 113.9637451 263.35073762 115.78186617 265.55810547 118.00097656 C266.41597656 118.86078125 267.27384766 119.72058594 268.15771484 120.60644531 C269.04652344 121.5075 269.93533203 122.40855469 270.85107422 123.33691406 C271.72828125 124.21476562 272.60548828 125.09261719 273.50927734 125.99707031 C278.55498187 131.07673994 283.39174408 136.26674279 288.03857422 141.71191406 C288.97624428 142.78321843 289.91499688 143.85357655 290.85498047 144.92285156 C312.92493079 170.24529953 331.44773578 197.97118453 347.03857422 227.71191406 C347.45220215 228.50049805 347.86583008 229.28908203 348.29199219 230.1015625 C367.71487955 267.75868624 380.23121811 309.43534815 386.85107422 351.14941406 C387.04596436 352.36636963 387.24085449 353.5833252 387.44165039 354.8371582 C390.53662054 375.41618628 391.41667374 395.9217194 391.35107422 416.71191406 C391.34834 418.51858551 391.34834 418.51858551 391.34555054 420.36175537 C391.29819782 438.98972822 390.76232821 457.2620369 388.03857422 475.71191406 C387.86165039 476.92298828 387.68472656 478.1340625 387.50244141 479.38183594 C384.94250658 496.36848461 381.4946655 513.12245903 377.03857422 529.71191406 C376.72968262 530.86208008 376.42079102 532.01224609 376.10253906 533.19726562 C359.89365397 592.41927005 329.8010745 647.15287297 289.30761719 693.26367188 C288.19026098 694.53880789 287.0842092 695.8238308 285.97998047 697.11035156 C282.65645924 700.97422257 279.1866447 704.60630601 275.54248047 708.16894531 C273.89949709 709.78627956 273.89949709 709.78627956 272.22607422 712.14941406 C271.63826172 712.92285156 271.63826172 712.92285156 271.03857422 713.71191406 C270.37857422 713.71191406 269.71857422 713.71191406 269.03857422 713.71191406 C269.03857422 714.37191406 269.03857422 715.03191406 269.03857422 715.71191406 C267.64013672 717.08691406 267.64013672 717.08691406 265.66357422 718.71191406 C262.34137006 721.52615379 259.26316114 724.46721838 256.22607422 727.58691406 C251.13667047 732.72272575 245.69772519 737.22261342 240.03857422 741.71191406 C238.90460516 742.63497422 237.77184646 743.55952277 236.64013672 744.48535156 C217.60637051 759.99587357 197.43986236 773.66622128 175.98291016 785.60253906 C174.45456717 786.47456198 172.93968382 787.37017862 171.43017578 788.27441406 C164.03381157 792.68739133 156.49270049 796.50393552 148.66357422 800.08691406 C148.05641571 800.36571411 147.4492572 800.64451416 146.82369995 800.9317627 C99.78290589 822.50908211 49.78066329 835.6360845 -1.96142578 838.71191406 C-2.99944336 838.77362793 -4.03746094 838.8353418 -5.10693359 838.89892578 C-91.47771181 843.6719811 -179.25847672 823.71255012 -252.96142578 777.71191406 C-253.81397949 777.18629883 -254.6665332 776.66068359 -255.54492188 776.11914062 C-267.14337842 768.95616922 -278.39604652 761.52887108 -289.13964844 753.13232422 C-290.94886135 751.72171034 -292.77168772 750.33056878 -294.59814453 748.94238281 C-301.68581831 743.51585235 -308.34575774 737.76902407 -314.82861328 731.63378906 C-317.08232716 729.50413282 -319.39543049 727.46380504 -321.74658203 725.44238281 C-326.54965642 721.26256451 -331.03410083 716.78573857 -335.52392578 712.27441406 C-336.33539063 711.46681641 -337.14685547 710.65921875 -337.98291016 709.82714844 C-342.85088427 704.95131642 -347.49140396 699.95340481 -351.96142578 694.71191406 C-352.99111231 693.52679108 -354.02105081 692.34188695 -355.05126953 691.15722656 C-356.00112411 690.05100136 -356.95035286 688.94423846 -357.89892578 687.83691406 C-358.39199219 687.26972656 -358.88505859 686.70253906 -359.39306641 686.11816406 C-362.96142578 681.94105545 -362.96142578 681.94105545 -362.96142578 679.71191406 C-363.62142578 679.71191406 -364.28142578 679.71191406 -364.96142578 679.71191406 C-366.33081055 678.17407227 -366.33081055 678.17407227 -367.90283203 676.01269531 C-368.77246582 674.8253479 -368.77246582 674.8253479 -369.65966797 673.61401367 C-370.58247559 672.33216187 -370.58247559 672.33216187 -371.52392578 671.02441406 C-372.15073242 670.16404541 -372.77753906 669.30367676 -373.42333984 668.41723633 C-377.81094266 662.37273317 -382.09942896 656.26580035 -386.28955078 650.08300781 C-387.89116187 647.66856664 -387.89116187 647.66856664 -389.96142578 645.71191406 C-390.78776375 644.29406078 -391.5720988 642.85163533 -392.33642578 641.39941406 C-394.35048165 637.63464134 -396.41239539 633.91390331 -398.56689453 630.22753906 C-433.90546662 569.69492496 -453.14681409 502.90325532 -455.52392578 432.83691406 C-455.56710937 431.68578125 -455.61029297 430.53464844 -455.65478516 429.34863281 C-459.10978348 330.96344257 -427.45311628 233.10304161 -346.93408203 135.93066406 C-345.5815452 134.40939491 -344.27832002 132.84325644 -343.02001953 131.24316406 C-338.76861777 126.015634 -333.69757658 121.54486023 -328.77392578 116.96191406 C-327.7776416 116.03439331 -327.7776416 116.03439331 -326.76123047 115.08813477 C-319.00030118 107.87551156 -311.20647224 100.77250125 -302.94970703 94.12597656 C-300.90431304 92.47361907 -298.88544217 90.80840123 -296.87939453 89.11035156 C-279.18075699 74.31513275 -259.18178587 61.75024178 -238.96142578 50.71191406 C-238.12353516 50.2465625 -237.28564453 49.78121094 -236.42236328 49.30175781 C-194.24263945 25.97226454 -137.18487336 1.76408245 -87.96142578 2.71191406 C-87.96142578 2.05191406 -87.96142578 1.39191406 -87.96142578 0.71191406 C-86.14771484 0.74285156 -86.14771484 0.74285156 -84.29736328 0.77441406 C-79.25083165 0.77441406 -74.26293569 0.3995548 -69.234375 0 C-46.0404449 -1.83167163 -23.18709637 -1.51151795 0 0 Z M-74.96142578 39.71191406 C-76.19248047 39.69 -77.42353516 39.66808594 -78.69189453 39.64550781 C-85.00771037 39.58452752 -91.06990111 40.67875298 -97.27392578 41.77441406 C-98.54719727 41.99919434 -99.82046875 42.22397461 -101.13232422 42.45556641 C-135.87670188 48.72430626 -169.12777394 59.51762827 -200.96142578 74.71191406 C-201.86634766 75.13827148 -202.77126953 75.56462891 -203.70361328 76.00390625 C-234.44652143 90.55601105 -263.42593289 109.60605241 -288.57470703 132.54394531 C-291.36733289 135.08061855 -294.21301106 137.55058601 -297.07470703 140.00878906 C-299.45854098 142.16065573 -301.69830974 144.43292764 -303.96142578 146.71191406 C-305.25729701 147.98637301 -306.55426801 149.2597142 -307.85205078 150.53222656 C-315.71592183 158.27928965 -323.18503207 165.98781438 -329.96142578 174.71191406 C-331.39601435 176.44349694 -332.83362083 178.17258308 -334.27392578 179.89941406 C-349.53456964 198.61029044 -362.40337527 218.52665109 -373.96142578 239.71191406 C-374.64954346 240.97285889 -374.64954346 240.97285889 -375.3515625 242.25927734 C-394.11679223 277.12057377 -406.45388307 315.72157379 -412.96142578 354.71191406 C-413.11160156 355.57300781 -413.26177734 356.43410156 -413.41650391 357.32128906 C-428.98575407 448.36300303 -408.00895111 547.64823288 -355.96142578 626.71191406 C-355.56213867 627.31438965 -355.16285156 627.91686523 -354.75146484 628.53759766 C-345.3736348 642.57994247 -335.13310236 656.05056224 -323.96142578 668.71191406 C-323.00381348 669.80088989 -323.00381348 669.80088989 -322.02685547 670.91186523 C-316.55872007 677.06443339 -310.87909371 682.9805142 -305.06005859 688.79858398 C-303.58936168 690.27147378 -302.12689044 691.75221672 -300.66455078 693.23339844 C-294.4319821 699.50240307 -287.88456237 705.20984951 -280.96142578 710.71191406 C-279.29176812 712.10416827 -277.62473281 713.49957901 -275.96142578 714.89941406 C-235.71209319 747.75250177 -187.59203455 774.21422524 -136.96142578 786.71191406 C-135.18652957 787.16964048 -133.4118063 787.62803775 -131.63720703 788.08691406 C-129.51616802 788.62879504 -127.39507214 789.17045346 -125.27392578 789.71191406 C-124.22269531 789.98519531 -123.17146484 790.25847656 -122.08837891 790.54003906 C-116.78120954 791.88747223 -111.65235349 793.04134523 -106.1809082 793.40332031 C-103.96142578 793.71191406 -103.96142578 793.71191406 -100.6574707 794.67456055 C-96.96526572 795.71083632 -93.46059184 796.28378363 -89.65673828 796.74707031 C-88.98065521 796.83047165 -88.30457214 796.91387299 -87.60800171 796.99980164 C-85.43493036 797.26514728 -83.26091147 797.5209354 -81.08642578 797.77441406 C-79.96530396 797.90656311 -79.96530396 797.90656311 -78.8215332 798.04138184 C-62.93309319 799.91128763 -62.93309319 799.91128763 -46.96142578 800.71191406 C-45.81303223 800.73237793 -44.66463867 800.7528418 -43.48144531 800.77392578 C17.30355105 801.682285 79.60265965 791.54976858 134.39013672 764.02832031 C137.03857422 762.71191406 137.03857422 762.71191406 140.03857422 761.71191406 C143.91629642 759.75467134 147.72019159 757.65712151 151.53857422 755.58691406 C152.57755859 755.03003906 153.61654297 754.47316406 154.68701172 753.89941406 C161.67083779 750.12013661 168.39828856 746.06427471 175.03857422 741.71191406 C175.81507324 741.2067627 176.59157227 740.70161133 177.39160156 740.18115234 C186.85448652 733.99856891 196.1120733 727.65208904 205.03857422 720.71191406 C206.15576172 719.85253906 207.27294922 718.99316406 208.39013672 718.13378906 C211.971182 715.36543488 215.51263054 712.55001294 219.03857422 709.71191406 C219.84536621 709.06609375 219.84536621 709.06609375 220.66845703 708.40722656 C229.09767794 701.60198399 236.8206945 694.11300621 244.47607422 686.46191406 C244.94883789 685.9901474 245.42160156 685.51838074 245.90869141 685.03231812 C251.5035593 679.43611185 256.93690212 673.76227367 262.03857422 667.71191406 C262.55395752 667.10331543 263.06934082 666.4947168 263.6003418 665.86767578 C271.45793422 656.5051736 278.74643865 646.82537405 285.64941406 636.74072266 C286.95393311 634.83552875 288.27093425 632.93952946 289.58935547 631.04394531 C299.71631824 616.32804577 308.44464943 600.64282136 316.15917969 584.54003906 C317.00182804 582.78830367 317.86545024 581.04670416 318.72998047 579.30566406 C332.97225716 549.96194781 341.6621838 518.59915337 348.03857422 486.71191406 C348.20196289 485.90125488 348.36535156 485.0905957 348.53369141 484.25537109 C353.36686688 459.48670444 358.64386432 426.18380085 353.52563477 401.20898438 C352.98742376 398.44967502 352.97959199 395.96592626 353.04248047 393.15722656 C353.28652525 360.49506939 344.45283842 326.43634963 334.03857422 295.71191406 C333.70857422 294.72191406 333.37857422 293.73191406 333.03857422 292.71191406 C326.12105295 273.54365337 318.64004317 254.18944321 308.03857422 236.71191406 C307.2970439 235.38195903 306.56364161 234.04743201 305.83935547 232.70800781 C300.95533188 223.74544096 295.90599698 215.07745242 290.03857422 206.71191406 C289.11259522 205.37220697 288.18682863 204.03235305 287.26123047 202.69238281 C278.39684358 189.92859102 269.15203301 177.72050325 258.51904297 166.37597656 C256.48781373 164.19440438 254.53055856 161.98244527 252.60107422 159.71191406 C246.00918573 152.12173477 238.74831065 144.99690771 231.09326172 138.48535156 C228.54254315 136.28378078 226.07769369 133.99644116 223.60107422 131.71191406 C219.67158145 128.13278759 215.68638695 124.74240201 211.44873047 121.53613281 C209.69057621 120.20540666 207.95073053 118.85039014 206.22216797 117.48144531 C179.13529037 96.15773316 148.27620269 78.22087195 116.21679688 65.57958984 C114.11750714 64.7433563 112.03679231 63.87162062 109.95654297 62.98925781 C82.22489887 51.43495412 -55.35106945 20.10155774 -74.96142578 39.71191406 Z " fill="#D4B062" transform="translate(543.96142578125,87.2880859375)"/>
<path d="M0 0 C0.00496522 1.7106621 0.00496522 1.7106621 0.01003075 3.45588303 C0.09095394 31.1800893 0.18324761 58.90423985 0.28752708 86.62836838 C0.29750537 89.29521424 0.30746747 91.96206015 0.31738281 94.62890625 C0.3210818 95.62320711 0.3210818 95.62320711 0.32485552 96.63759485 C0.36459754 107.37577928 0.39733848 118.11397426 0.42749982 128.85218939 C0.45859529 139.86760157 0.49734487 150.88296766 0.54279006 161.89832997 C0.56807755 168.08674626 0.5898522 174.27513072 0.60334396 180.4635849 C0.61614386 186.28459584 0.63817589 192.10549778 0.66738319 197.92644882 C0.67647519 200.0662328 0.68215296 202.20603434 0.68421364 204.34583664 C0.68752471 207.261017 0.70297088 210.17588614 0.7215271 213.09100342 C0.718625 214.36921215 0.718625 214.36921215 0.71566427 215.67324328 C0.75605469 219.90017791 1.06575356 222.13150712 3 226 C81.21 226.33 159.42 226.66 240 227 C240 238.88 240 250.76 240 263 C238.07265739 264.92734261 235.18057392 264.12296152 232.61554426 264.12908131 C231.68852046 264.12616847 230.76149666 264.12325563 229.80638123 264.12025452 C228.34114607 264.12153615 228.34114607 264.12153615 226.8463102 264.12284368 C223.54652911 264.12450145 220.24679795 264.11897228 216.94702148 264.11352539 C214.59222413 264.11324356 212.23742669 264.11340118 209.88262939 264.1139679 C203.46759631 264.11425602 197.05258174 264.10835691 190.63755298 264.10139394 C184.61936854 264.09531949 178.60118191 264.09477212 172.58299495 264.09374207 C160.6595745 264.09155123 148.73616088 264.0848903 136.81274414 264.07543945 C125.22745803 264.06626615 113.64217377 264.05919638 102.05688477 264.05493164 C101.33596954 264.05466364 100.61505432 264.05439565 99.87229317 264.05411953 C93.60176865 264.05180681 87.33124408 264.04965395 81.06071949 264.04751682 C54.04047324 264.03810028 27.02024507 264.01818185 0 264 C0 337.92 0 411.84 0 488 C-11.88 488 -23.76 488 -36 488 C-37.05109319 445.43671167 -37.1568924 402.89102156 -37.12856841 360.31724334 C-37.12418564 352.94146821 -37.12736244 345.5657099 -37.1321975 338.1899358 C-37.13673354 330.9760766 -37.13737961 323.76222469 -37.13475883 316.54836452 C-37.13321093 312.28273865 -37.13296303 308.01712428 -37.13629532 303.75149918 C-37.13918447 299.78313285 -37.13717927 295.81479843 -37.13140106 291.84643555 C-37.13008322 290.39802987 -37.13045095 288.94962148 -37.13266373 287.50121689 C-37.13541122 285.52059782 -37.13134932 283.53997285 -37.12698364 281.55935669 C-37.1264181 279.90244906 -37.1264181 279.90244906 -37.12584114 278.21206856 C-36.99032786 274.75312079 -36.54406196 271.41657787 -36 268 C-36.66 268 -37.32 268 -38 268 C-38 267.34 -38 266.68 -38 266 C-37.34 266 -36.68 266 -36 266 C-36 265.34 -36 264.68 -36 264 C-115.2 264 -194.4 264 -276 264 C-276 251.79 -276 239.58 -276 227 C-197.13 226.67 -118.26 226.34 -37 226 C-37.03962271 152.32629032 -37.03962271 152.32629032 -37.09008789 78.65258789 C-37.09460449 64.43835449 -37.09460449 64.43835449 -37.09544373 57.79466248 C-37.09637945 53.1313683 -37.100143 48.46808538 -37.10557556 43.80479431 C-37.11240008 37.8686394 -37.11449761 31.93250101 -37.11307228 25.99634254 C-37.11337062 23.81017714 -37.11537387 21.62401121 -37.11921513 19.43784916 C-37.12414019 16.49993165 -37.12300802 13.56207958 -37.12025452 10.62416077 C-37.12316718 9.75574775 -37.12607985 8.88733473 -37.12908077 7.99260616 C-37.11412483 2.11412483 -37.11412483 2.11412483 -36 1 C-33.42015037 0.83999605 -30.86397131 0.74059181 -28.28125 0.68359375 C-27.12163757 0.6524221 -27.12163757 0.6524221 -25.93859863 0.62062073 C-23.45915929 0.55504389 -20.97961032 0.49621878 -18.5 0.4375 C-16.82681151 0.3943199 -15.15363416 0.35070578 -13.48046875 0.30664062 C-1.70107013 0 -1.70107013 0 0 0 Z " fill="#D4B062" transform="translate(531,244)"/>
<path d="M0 0 C26.07967455 -0.77849775 50.05211568 9.57355962 68.84375 27.125 C69.50503906 27.70636719 70.16632813 28.28773438 70.84765625 28.88671875 C86.24712313 43.07137849 96.91580639 65.74079962 97.96826172 86.59179688 C98.67526087 111.06011519 94.38462849 132.15577167 79.84375 152.125 C79.1321875 153.10339844 78.420625 154.08179688 77.6875 155.08984375 C62.14628823 175.16390896 38.81763165 187.34148866 13.8515625 190.7109375 C-10.30870653 193.45230007 -34.55371778 187.74332248 -54.15625 173.125 C-57.62553154 170.25726803 -60.91010023 167.24151983 -64.15625 164.125 C-64.87941406 163.45339844 -65.60257813 162.78179687 -66.34765625 162.08984375 C-70.54942191 158.07942985 -73.81270487 153.97369601 -76.83203125 149.0078125 C-78.18274228 146.84627725 -78.18274228 146.84627725 -81.15625 145.125 C-81.15625 144.135 -81.15625 143.145 -81.15625 142.125 C-82.02363482 140.32951342 -82.94974937 138.56213854 -83.90625 136.8125 C-95.21405935 114.59692173 -95.61285017 88.14985333 -88.41015625 64.6015625 C-79.71918284 40.50509416 -61.75192983 20.84409547 -39.15625 9.125 C-26.60390081 3.31052101 -13.7217974 0.79546652 0 0 Z M-38.15625 56.125 C-50.5345295 70.92361348 -54.71803014 86.15070782 -53.15625 105.125 C-50.46408834 119.57535959 -42.21335387 133.22183637 -30.34375 142 C-16.91347869 150.60280052 -2.23043546 153.77796362 13.46875 150.94140625 C27.72594149 147.49261803 40.33124132 140.33030776 48.84375 128.125 C58.2694733 112.32342691 61.29368721 97.88051894 56.9453125 79.61328125 C52.03657782 64.06895477 41.72619794 53.1058082 27.84375 45.125 C23.91015828 43.44906832 19.99247077 42.14997807 15.84375 41.125 C15.080625 40.93550781 14.3175 40.74601562 13.53125 40.55078125 C-5.00388392 37.61425567 -25.02266123 42.11936207 -38.15625 56.125 Z " fill="#D4B062" transform="translate(658.15625,251.875)"/>
<path d="M0 0 C0.77085937 0.73734375 1.54171875 1.4746875 2.3359375 2.234375 C3.02429688 2.84796875 3.71265625 3.4615625 4.421875 4.09375 C20.37493574 18.8487548 29.60160642 41.6722789 30.71484375 63.08203125 C31.51942092 89.87487911 24.00570004 114.23489327 5.45410156 134.02514648 C-7.90019121 147.93929582 -23.96792403 157.36119605 -42.6640625 162.234375 C-43.48648438 162.46125 -44.30890625 162.688125 -45.15625 162.921875 C-69.42923445 168.50543692 -96.23073892 162.81875546 -117.21972656 149.96533203 C-128.84588357 142.44560515 -137.78715522 132.51169581 -145.6640625 121.234375 C-146.52451172 120.02394531 -146.52451172 120.02394531 -147.40234375 118.7890625 C-160.74749733 98.44373792 -163.11109708 71.89960035 -158.63671875 48.5625 C-153.94177437 26.40352779 -139.23683381 4.14187646 -120.41064453 -8.47900391 C-82.57020472 -32.77654947 -33.44001473 -31.43572363 0 0 Z M-105.4375 29.91796875 C-106.98079426 31.62049179 -108.32801054 33.36464866 -109.6640625 35.234375 C-110.24929688 36.03488281 -110.83453125 36.83539062 -111.4375 37.66015625 C-120.66610474 51.11367075 -123.08255192 66.4848148 -120.26855469 82.48291016 C-117.70841905 93.4289009 -112.00272009 102.72958317 -103.6640625 110.234375 C-102.93316406 110.93626953 -102.93316406 110.93626953 -102.1875 111.65234375 C-90.99986593 121.96511544 -77.32241965 125.97943119 -62.2734375 125.578125 C-45.36274181 123.96758255 -31.24958336 116.30676704 -20.4765625 103.359375 C-11.30703945 91.51688287 -7.68472576 78.14205654 -8.6640625 63.234375 C-11.08634441 47.34584789 -19.33362274 33.70282992 -32.05859375 24.01953125 C-55.31142322 8.08768257 -84.95850633 10.47645713 -105.4375 29.91796875 Z " fill="#D4B162" transform="translate(725.6640625,560.765625)"/>
<path d="M0 0 C1.69581831 1.64424602 3.35212582 3.30877479 5 5 C7.59989135 7.62924842 10.20648453 10.25182356 12.8125 12.875 C13.48603516 13.55691406 14.15957031 14.23882812 14.85351562 14.94140625 C18.84883382 18.9558408 22.93821519 22.77271033 27.26318359 26.4309082 C28.95696632 27.96112209 30.37849026 29.53983801 31.8125 31.3125 C33.89880609 34.14569422 33.89880609 34.14569422 37 36 C37 36.66 37 37.32 37 38 C37.66 38 38.32 38 39 38 C40.3046875 39.328125 40.3046875 39.328125 41.875 41.25 C46.89702718 47.17833782 52.47001718 52.55174107 58 58 C61.12197478 56.6910428 61.12197478 56.6910428 63 54 C63.66 54 64.32 54 65 54 C65.23392456 53.44272217 65.46784912 52.88544434 65.7088623 52.3112793 C67.32772702 49.41333238 69.32832832 47.38667789 71.65820312 45.01953125 C72.13011078 44.53769379 72.60201843 44.05585632 73.08822632 43.55941772 C74.64699507 41.97150957 76.21338584 40.39142537 77.78125 38.8125 C78.31856247 38.26953278 78.85587494 37.72656555 79.4094696 37.16714478 C82.25547887 34.2911847 85.10717484 31.42101167 87.96386719 28.55566406 C90.898218 25.61037703 93.81357342 22.6470287 96.72473907 19.67884827 C98.97956324 17.38656018 101.24790383 15.10800825 103.52000427 12.83285522 C104.59976268 11.74708547 105.67456854 10.65636508 106.74403381 9.56045532 C113.33947548 2.81376497 119.76901665 -3.63030643 129.6932373 -4.13769531 C135.6951678 -3.95210276 140.55432173 -2.04062758 145 2 C149.08706361 7.21558118 151.37207799 12.05743907 151.28515625 18.8125 C150.15117018 27.51157122 143.47018321 33.65735333 137.1484375 39.0390625 C134.13618573 41.78842684 131.54586187 44.85042367 128.87890625 47.9296875 C126.44693584 50.60940542 123.82423717 52.74061027 121 55 C118.31279024 57.55612636 115.90251536 60.1199811 113.5625 63 C110.93248768 66.07903881 108.1374966 68.45078401 105 71 C102.4590396 73.41996229 100.15908881 75.79616746 98 78.5625 C95.89556954 81.12727462 93.60264843 82.96008637 91 85 C90.67 85.66 90.34 86.32 90 87 C89.34 87 88.68 87 88 87 C88 87.66 88 88.32 88 89 C88.58910156 89.25007813 89.17820312 89.50015625 89.78515625 89.7578125 C92.29309705 91.16438247 93.62424578 92.65554334 95.4375 94.875 C98.07926036 98.00117697 100.73768876 100.51034142 104 103 C106.71391203 105.57821643 109.2107723 108.21950155 111.5625 111.125 C113.61806922 113.54951754 115.48299618 115.13555272 118 117 C118 117.66 118 118.32 118 119 C118.556875 119.226875 119.11375 119.45375 119.6875 119.6875 C122.64808817 121.36783382 124.61734052 123.56934702 127 126 C128.65692769 127.61395929 130.3158416 129.22588158 131.9765625 130.8359375 C133.37983848 132.21162098 134.78308301 133.58733809 136.18457031 134.96484375 C137.14490201 135.90499221 138.10878327 136.84152855 139.07617188 137.77441406 C150.17452968 148.4887717 150.17452968 148.4887717 151.3984375 156.66015625 C151.33296227 163.37136711 150.2311868 167.46730147 145.6875 172.625 C140.04153427 177.61445809 135.61849045 180.31148854 128 180 C120.24341769 178.48082004 113.88445047 173.39853446 108.91186523 167.45703125 C104.35618725 162.17407891 99.41636804 157.29124921 94.47265625 152.375 C93.47352972 151.37774323 92.4746272 150.38026198 91.47593689 149.38256836 C88.8725305 146.78294321 86.2661333 144.18633769 83.65905762 141.59039307 C80.98895726 138.93060237 78.32175723 136.2679066 75.65429688 133.60546875 C70.43899962 128.40083112 65.22053284 123.1993866 60 118 C56.77633495 119.07455502 56.17361888 119.70306842 54.125 122.25 C51.55020511 125.35640677 48.97664348 128.27141015 46 131 C45.34 131 44.68 131 44 131 C43.773125 131.556875 43.54625 132.11375 43.3125 132.6875 C41.62449964 135.66159588 39.53323483 137.72008865 37 140 C36.34 140 35.68 140 35 140 C34.7628125 140.56170898 34.525625 141.12341797 34.28125 141.70214844 C32.70680643 144.52582658 30.78315455 146.47614842 28.5 148.765625 C27.613125 149.65507812 26.72625 150.54453125 25.8125 151.4609375 C24.884375 152.38132812 23.95625 153.30171875 23 154.25 C22.071875 155.18585938 21.14375 156.12171875 20.1875 157.0859375 C19.300625 157.97023438 18.41375 158.85453125 17.5 159.765625 C16.27796875 160.98427246 16.27796875 160.98427246 15.03125 162.22753906 C13 164 13 164 11 164 C10.73445313 164.5878125 10.46890625 165.175625 10.1953125 165.78125 C6.74788871 172.18038958 0.76085824 176.59469467 -6 179 C-12.20668698 180.78565399 -17.20248219 179.66552543 -23 177 C-27.81001233 174.1139926 -30.40080844 170.31344293 -32 165 C-33.02708756 156.30399199 -31.83102552 150.51850007 -26.4375 143.625 C-25.633125 142.75875 -24.82875 141.8925 -24 141 C-23.34 141 -22.68 141 -22 141 C-21.731875 140.401875 -21.46375 139.80375 -21.1875 139.1875 C-20.00082594 137.00152146 -18.90400887 135.58667406 -17 134 C-16.34 134 -15.68 134 -15 134 C-14.75420197 133.42888489 -14.50840393 132.85776978 -14.25515747 132.26934814 C-12.78652753 129.6140378 -11.06995434 127.8300145 -8.91748047 125.69042969 C-8.07675995 124.84986023 -7.23603943 124.00929077 -6.36984253 123.14324951 C-5.46146637 122.24519592 -4.55309021 121.34714233 -3.6171875 120.421875 C-2.68778351 119.4953009 -1.75837952 118.56872681 -0.80081177 117.61407471 C1.6640385 115.15684211 4.13483666 112.70567639 6.60693359 110.2557373 C9.13090765 107.75226191 11.64919388 105.24307937 14.16796875 102.734375 C19.10643597 97.81732475 24.051212 92.90666212 29 88 C23.99074743 81.88094868 18.44932412 76.35888482 12.82712746 70.81309319 C11.11299173 69.12121374 9.40305014 67.42519759 7.69425964 65.72792053 C2.84023737 60.90728299 -2.01802033 56.09097711 -6.88647461 51.28491211 C-9.87597127 48.33313976 -12.85804106 45.37403515 -15.83553505 42.41015816 C-16.96623221 41.28748663 -18.09969441 40.1675925 -19.23601341 39.0506115 C-20.82475133 37.48846651 -22.40386029 35.9171465 -23.98120117 34.34350586 C-24.88021652 33.45416855 -25.77923187 32.56483124 -26.70549011 31.64854431 C-31.6662784 25.92232466 -32.50914159 21.18418578 -32.2734375 13.83203125 C-31.7145948 8.04401752 -29.30187358 5.09689997 -25.1875 1.25 C-17.33545766 -5.20295116 -8.63254173 -5.49343565 0 0 Z " fill="#D4B162" transform="translate(310,261)"/>
<path d="M0 0 C11.02429647 7.57400672 20.36808256 18.49274301 29.77246094 27.92285156 C32.12036626 30.27615042 34.47361538 32.62401132 36.82739258 34.97143555 C38.34529167 36.489995 39.86288076 38.00886438 41.38012695 39.52807617 C42.07193558 40.21786057 42.7637442 40.90764496 43.47651672 41.61833191 C47.37551779 45.53591335 51.0532061 49.54191466 54.55693054 53.81892395 C56.59637771 55.88035466 58.7701218 57.17879824 61.2980957 58.57885742 C61.99443115 57.87363953 62.6907666 57.16842163 63.40820312 56.4418335 C69.98794511 49.78082779 76.57835818 43.1305441 83.17922974 36.4904747 C86.57206043 33.07681421 89.96108801 29.65955274 93.34155273 26.23364258 C96.60709416 22.92447978 99.88245308 19.62532832 103.16470337 16.33274078 C104.41206779 15.07801426 105.65592018 13.8197857 106.89608765 12.55794525 C108.64056855 10.78421467 110.3973908 9.02361543 112.1574707 7.26538086 C112.66170059 6.74676987 113.16593048 6.22815887 113.68544006 5.6938324 C118.0101057 1.41763732 122.95668928 -1.76063201 128.9855957 -2.95239258 C135.82100581 -2.86002217 141.02515113 -1.55589616 146.0559082 3.26245117 C150.85869774 8.6568887 152.74186111 12.69406872 152.6340332 19.96166992 C152.10259026 24.10198126 150.41415519 27.00800704 148.2980957 30.57885742 C147.6380957 30.57885742 146.9780957 30.57885742 146.2980957 30.57885742 C145.9577832 31.44510742 145.9577832 31.44510742 145.6105957 32.32885742 C143.95722641 35.16320479 141.86845626 36.54647931 139.2980957 38.57885742 C138.3802269 39.64358524 137.48433917 40.72763045 136.6105957 41.82885742 C135.4659082 43.19010742 135.4659082 43.19010742 134.2980957 44.57885742 C133.6380957 44.57885742 132.9780957 44.57885742 132.2980957 44.57885742 C132.2980957 45.23885742 132.2980957 45.89885742 132.2980957 46.57885742 C130.72387695 48.09448242 130.72387695 48.09448242 128.6105957 49.82885742 C126.05831808 51.99089224 123.7473789 54.07869902 121.6730957 56.70385742 C119.58222856 59.23490713 117.46283222 61.12581984 114.9074707 63.16088867 C112.31380227 65.44608683 110.1483794 68.08633518 107.90356445 70.70776367 C106.12547845 72.78003422 104.34058754 74.76330912 102.2980957 76.57885742 C101.6380957 76.57885742 100.9780957 76.57885742 100.2980957 76.57885742 C100.2980957 77.23885742 100.2980957 77.89885742 100.2980957 78.57885742 C99.6380957 78.57885742 98.9780957 78.57885742 98.2980957 78.57885742 C97.9577832 79.41416992 97.9577832 79.41416992 97.6105957 80.26635742 C95.92259534 83.2404533 93.83133054 85.29894607 91.2980957 87.57885742 C90.6380957 87.57885742 89.9780957 87.57885742 89.2980957 87.57885742 C92.98352663 94.22433287 98.50254724 99.43364369 104.4230957 104.14135742 C106.79354348 106.15108489 108.61875753 108.03943867 110.6105957 110.39135742 C113.86237051 114.21273358 117.43184348 117.46850992 121.2121582 120.75854492 C127.99879993 126.6809701 127.99879993 126.6809701 129.2980957 130.57885742 C130.61114393 131.28463825 131.94792127 131.94699412 133.2980957 132.57885742 C135.95129724 134.77214626 138.35429581 137.21891112 140.7980957 139.64135742 C141.46196289 140.27235352 142.12583008 140.90334961 142.80981445 141.5534668 C148.4160625 147.09816921 151.73711511 152.65199327 152.8605957 160.51635742 C152.50730462 166.40454212 149.75856195 172.22068627 145.51293945 176.28979492 C140.94562005 179.64498072 137.17802953 180.76851391 131.6105957 180.95385742 C130.61672852 181.0028418 129.62286133 181.05182617 128.59887695 181.10229492 C118.38020381 179.48181894 110.98327689 169.64790599 104.0480957 162.62182617 C102.78223467 161.35036168 101.51570355 160.07956401 100.24853516 158.80940247 C96.93423463 155.48371228 93.62904765 152.1491091 90.32574463 148.8125 C86.9457359 145.4016631 83.55709288 141.99942772 80.16918945 138.59643555 C73.53706385 131.93224965 66.91454442 125.25860564 60.2980957 118.57885742 C55.65293796 122.46403239 51.23533177 126.49247142 46.9621582 130.78198242 C46.39733734 131.34584656 45.83251648 131.90971069 45.25057983 132.49066162 C44.07134324 133.66922386 42.8933437 134.84902509 41.71655273 136.0300293 C39.91023608 137.84175556 38.0985725 139.64801359 36.28637695 141.45385742 C35.13631616 142.60457815 33.98656513 143.75560857 32.8371582 144.90698242 C32.02476181 145.71634247 32.02476181 145.71634247 31.19595337 146.54205322 C28.40108067 149.29923681 28.40108067 149.29923681 26.2980957 152.57885742 C25.6380957 152.57885742 24.9780957 152.57885742 24.2980957 152.57885742 C23.6380957 153.89885742 22.9780957 155.21885742 22.2980957 156.57885742 C21.6380957 156.57885742 20.9780957 156.57885742 20.2980957 156.57885742 C20.0505957 157.15635742 19.8030957 157.73385742 19.5480957 158.32885742 C18.11509582 160.90825721 16.51384894 162.64007334 14.2980957 164.57885742 C13.6380957 164.57885742 12.9780957 164.57885742 12.2980957 164.57885742 C12.0505957 165.15635742 11.8030957 165.73385742 11.5480957 166.32885742 C10.11509582 168.90825721 8.51384894 170.64007334 6.2980957 172.57885742 C5.6380957 172.57885742 4.9780957 172.57885742 4.2980957 172.57885742 C3.9680957 173.56885742 3.6380957 174.55885742 3.2980957 175.57885742 C1.73950195 176.71166992 1.73950195 176.71166992 -0.1394043 177.70385742 C-1.0655957 178.20272461 -1.0655957 178.20272461 -2.01049805 178.71166992 C-7.11385602 181.32817216 -12.35000239 181.50210058 -17.9284668 179.96557617 C-24.02982657 177.29181426 -27.76438241 172.4539012 -30.7019043 166.57885742 C-31.394894 159.0922965 -31.28737197 153.6515038 -26.7019043 147.57885742 C-24.4519043 145.14135742 -24.4519043 145.14135742 -21.7019043 142.57885742 C-20.27954544 141.1888249 -18.86322427 139.79259654 -17.4519043 138.39135742 C-16.76612305 137.71717773 -16.0803418 137.04299805 -15.3737793 136.34838867 C-13.62741319 134.67086747 -13.62741319 134.67086747 -12.7019043 132.57885742 C-12.0419043 132.57885742 -11.3819043 132.57885742 -10.7019043 132.57885742 C-10.4337793 131.93948242 -10.1656543 131.30010742 -9.8894043 130.64135742 C-8.7019043 128.57885742 -8.7019043 128.57885742 -5.7019043 127.57885742 C-5.3925293 126.93948242 -5.0831543 126.30010742 -4.7644043 125.64135742 C-3.44406211 123.07834024 -2.2204369 122.83812372 0.2980957 121.57885742 C0.9723746 120.24935745 1.63818991 118.91554982 2.2980957 117.57885742 C3.60159302 116.03485107 3.60159302 116.03485107 5.09545898 114.55444336 C5.65588898 113.99416443 6.21631897 113.4338855 6.79373169 112.85662842 C7.39587494 112.26480774 7.99801819 111.67298706 8.6184082 111.06323242 C9.23706757 110.44740295 9.85572693 109.83157349 10.49313354 109.19708252 C12.46513384 107.23625406 14.44398307 105.28250442 16.4230957 103.32885742 C17.76339734 101.99858944 19.10324653 100.66786543 20.44262695 99.33666992 C23.72256159 96.07875592 27.00865512 92.82717209 30.2980957 89.57885742 C25.35695416 83.54587101 19.89616643 78.09917196 14.34098434 72.63827705 C12.66399193 70.98824557 10.99168181 69.33360133 9.32070923 67.67747498 C4.57426628 62.97347027 -0.17487399 58.27230098 -4.94018555 53.58740234 C-7.86711113 50.70920148 -10.78400504 47.82115349 -13.69474411 44.92658806 C-14.79860296 43.83256968 -15.90609308 42.7422017 -17.01738358 41.65573311 C-29.65760028 29.29181471 -29.65760028 29.29181471 -31.2331543 20.67260742 C-31.14888 13.67784064 -30.11155168 8.33330061 -25.3112793 3.04760742 C-18.3435746 -3.25999894 -8.20271595 -4.81309383 0 0 Z " fill="#D4B162" transform="translate(308.701904296875,539.421142578125)"/>
<path d="M0 0 C0.33 0 0.66 0 1 0 C1 2.31 1 4.62 1 7 C0.67 7 0.34 7 0 7 C0 4.69 0 2.38 0 0 Z " fill="#D9B464" transform="translate(532,537)"/>
<path d="M0 0 C0.33 0 0.66 0 1 0 C1 2.31 1 4.62 1 7 C0.67 7 0.34 7 0 7 C0 4.69 0 2.38 0 0 Z " fill="#D9B464" transform="translate(532,441)"/>
<path d="M0 0 C1.98 0 3.96 0 6 0 C6 0.33 6 0.66 6 1 C4.02 1 2.04 1 0 1 C0 0.67 0 0.34 0 0 Z " fill="#C9A75A" transform="translate(490,927)"/>
<path d="M0 0 C1.65 0 3.3 0 5 0 C5 0.33 5 0.66 5 1 C3.35 1 1.7 1 0 1 C0 0.67 0 0.34 0 0 Z " fill="#D3B163" transform="translate(664,726)"/>
<path d="M0 0 C0.33 0 0.66 0 1 0 C1 1.65 1 3.3 1 5 C0.67 5 0.34 5 0 5 C0 3.35 0 1.7 0 0 Z " fill="#D5B162" transform="translate(532,699)"/>
<path d="M0 0 C0.33 0 0.66 0 1 0 C1 1.65 1 3.3 1 5 C0.67 5 0.34 5 0 5 C0 3.35 0 1.7 0 0 Z " fill="#D8B464" transform="translate(532,571)"/>
<path d="M0 0 C0.33 0 0.66 0 1 0 C1 1.65 1 3.3 1 5 C0.67 5 0.34 5 0 5 C0 3.35 0 1.7 0 0 Z " fill="#D9B464" transform="translate(532,563)"/>
<path d="M0 0 C0.33 0 0.66 0 1 0 C1 1.65 1 3.3 1 5 C0.67 5 0.34 5 0 5 C0 3.35 0 1.7 0 0 Z " fill="#D9B565" transform="translate(532,547)"/>
<path d="M0 0 C1.65 0 3.3 0 5 0 C5 0.33 5 0.66 5 1 C3.35 1 1.7 1 0 1 C0 0.67 0 0.34 0 0 Z " fill="#D9B566" transform="translate(399,509)"/>
<path d="M0 0 C0.33 0 0.66 0 1 0 C1 1.65 1 3.3 1 5 C0.67 5 0.34 5 0 5 C0 3.35 0 1.7 0 0 Z " fill="#D8B364" transform="translate(532,427)"/>
<path d="M0 0 C0.33 0 0.66 0 1 0 C1 1.65 1 3.3 1 5 C0.67 5 0.34 5 0 5 C0 3.35 0 1.7 0 0 Z " fill="#D8B465" transform="translate(532,411)"/>
<path d="M0 0 C0.33 0 0.66 0 1 0 C1 1.65 1 3.3 1 5 C0.67 5 0.34 5 0 5 C0 3.35 0 1.7 0 0 Z " fill="#D9B464" transform="translate(532,387)"/>
<path d="M0 0 C0.33 0 0.66 0 1 0 C1 1.65 1 3.3 1 5 C0.67 5 0.34 5 0 5 C0 3.35 0 1.7 0 0 Z " fill="#D9B465" transform="translate(532,363)"/>
<path d="M0 0 C0.33 0 0.66 0 1 0 C1 1.65 1 3.3 1 5 C0.67 5 0.34 5 0 5 C0 3.35 0 1.7 0 0 Z " fill="#D8B364" transform="translate(532,339)"/>
<path d="M0 0 C0.33 0 0.66 0 1 0 C1 1.65 1 3.3 1 5 C0.67 5 0.34 5 0 5 C0 3.35 0 1.7 0 0 Z " fill="#D8B364" transform="translate(532,315)"/>
<path d="M0 0 C0.33 0 0.66 0 1 0 C1 1.65 1 3.3 1 5 C0.67 5 0.34 5 0 5 C0 3.35 0 1.7 0 0 Z " fill="#D6B264" transform="translate(532,283)"/>
<path d="M0 0 C4 1 4 1 4 1 Z " fill="#C9A95D" transform="translate(474,926)"/>
<path d="M0 0 C1 4 1 4 1 4 Z " fill="#D8B365" transform="translate(532,667)"/>
<path d="M0 0 C1 4 1 4 1 4 Z " fill="#D9B464" transform="translate(532,588)"/>
<path d="M0 0 C1 4 1 4 1 4 Z " fill="#D0AE62" transform="translate(88,541)"/>
<path d="M0 0 C1 4 1 4 1 4 Z " fill="#D0AE63" transform="translate(935,538)"/>
<path d="M0 0 C1 4 1 4 1 4 Z " fill="#D0AE63" transform="translate(88,534)"/>
<path d="M0 0 C1 4 1 4 1 4 Z " fill="#D9B364" transform="translate(532,531)"/>
<path d="M0 0 C0.99 0 1.98 0 3 0 C2.67 0.66 2.34 1.32 2 2 C1.34 1.34 0.68 0.68 0 0 Z " fill="#DBB664" transform="translate(466,509)"/>
<path d="M0 0 C4 1 4 1 4 1 Z " fill="#DAB665" transform="translate(415,509)"/>
<path d="M0 0 C4 1 4 1 4 1 Z " fill="#D9B465" transform="translate(359,509)"/>
<path d="M0 0 C1 4 1 4 1 4 Z " fill="#D8B364" transform="translate(532,371)"/>
<path d="M0 0 C1 4 1 4 1 4 Z " fill="#D8B565" transform="translate(532,355)"/>
<path d="M0 0 C1 4 1 4 1 4 Z " fill="#D8B365" transform="translate(532,308)"/>
<path d="M0 0 C1 4 1 4 1 4 Z " fill="#D8B364" transform="translate(532,299)"/>
<path d="M0 0 C4 1 4 1 4 1 Z " fill="#D7B466" transform="translate(664,293)"/>
<path d="M0 0 C3 1 3 1 3 1 Z " fill="#CAA95D" transform="translate(531,927)"/>
<path d="M0 0 C3 1 3 1 3 1 Z " fill="#C9A75B" transform="translate(486,927)"/>
<path d="M0 0 C3 1 3 1 3 1 Z " fill="#CAA85E" transform="translate(545,926)"/>
<path d="M0 0 C3 1 3 1 3 1 Z " fill="#CCA95F" transform="translate(464,925)"/>
<path d="M0 0 C3 1 3 1 3 1 Z " fill="#CBA95D" transform="translate(416,917)"/>
<path d="M0 0 C3 1 3 1 3 1 Z " fill="#D4B062" transform="translate(640,864)"/>
<path d="M0 0 C3 1 3 1 3 1 Z " fill="#CBA85C" transform="translate(519,733)"/>
<path d="" fill="#D1AF60" transform="translate(0,0)"/>
<path d="" fill="#D4B061" transform="translate(0,0)"/>
<path d="" fill="#D7B265" transform="translate(0,0)"/>
<path d="" fill="#D9B465" transform="translate(0,0)"/>
<path d="" fill="#D9B565" transform="translate(0,0)"/>
<path d="" fill="#D9B463" transform="translate(0,0)"/>
<path d="" fill="#D8B566" transform="translate(0,0)"/>
<path d="M0 0 C3 1 3 1 3 1 Z " fill="#D7B364" transform="translate(751,509)"/>
<path d="M0 0 C3 1 3 1 3 1 Z " fill="#DAB665" transform="translate(671,509)"/>
<path d="M0 0 C3 1 3 1 3 1 Z " fill="#DBB665" transform="translate(632,509)"/>
<path d="M0 0 C3 1 3 1 3 1 Z " fill="#D9B666" transform="translate(599,509)"/>
<path d="M0 0 C3 1 3 1 3 1 Z " fill="#DAB665" transform="translate(575,509)"/>
<path d="M0 0 C3 1 3 1 3 1 Z " fill="#DBB666" transform="translate(536,509)"/>
<path d="M0 0 C3 1 3 1 3 1 Z " fill="#DBB665" transform="translate(443,509)"/>
<path d="M0 0 C3 1 3 1 3 1 Z " fill="#DAB666" transform="translate(439,509)"/>
<path d="M0 0 C3 1 3 1 3 1 Z " fill="#D9B565" transform="translate(367,509)"/>
<path d="M0 0 C3 1 3 1 3 1 Z " fill="#D9B565" transform="translate(343,509)"/>
<path d="M0 0 C3 1 3 1 3 1 Z " fill="#DAB564" transform="translate(335,509)"/>
<path d="" fill="#D9B365" transform="translate(0,0)"/>
<path d="" fill="#DAB465" transform="translate(0,0)"/>
<path d="M0 0 C3 1 3 1 3 1 Z " fill="#D8B566" transform="translate(672,400)"/>
<path d="" fill="#D9B465" transform="translate(0,0)"/>
<path d="" fill="#D7B264" transform="translate(0,0)"/>
<path d="" fill="#D6B262" transform="translate(0,0)"/>
<path d="" fill="#D5B062" transform="translate(0,0)"/>
<path d="M0 0 C3 1 3 1 3 1 Z " fill="#D3AF61" transform="translate(531,126)"/>
<path d="M0 0 C3 1 3 1 3 1 Z " fill="#D3B061" transform="translate(524,126)"/>
<path d="M0 0 C3 1 3 1 3 1 Z " fill="#D3B162" transform="translate(496,126)"/>
<path d="M0 0 C2 1 2 1 2 1 Z " fill="#CBA85D" transform="translate(528,927)"/>
<path d="M0 0 C2 1 2 1 2 1 Z " fill="#CAA85D" transform="translate(549,926)"/>
<path d="M0 0 C2 1 2 1 2 1 Z " fill="#CCA95E" transform="translate(603,918)"/>
<path d="M0 0 C2 1 2 1 2 1 Z " fill="#CBA95F" transform="translate(419,918)"/>
<path d="M0 0 C2 1 2 1 2 1 Z " fill="#CEAB5D" transform="translate(694,887)"/>
<path d="M0 0 C2 1 2 1 2 1 Z " fill="#D3B061" transform="translate(578,880)"/>
<path d="M0 0 C2 1 2 1 2 1 Z " fill="#D0AF60" transform="translate(611,873)"/>
<path d="M0 0 C2 1 2 1 2 1 Z " fill="#D3B163" transform="translate(616,872)"/>
<path d="M0 0 C2 1 2 1 2 1 Z " fill="#C7A359" transform="translate(528,733)"/>
<path d="" fill="#CBA95C" transform="translate(0,0)"/>
<path d="M0 0 C2 1 2 1 2 1 Z " fill="#D5B263" transform="translate(673,725)"/>
<path d="" fill="#D7B263" transform="translate(0,0)"/>
<path d="" fill="#CBA85E" transform="translate(0,0)"/>
<path d="" fill="#D9B466" transform="translate(0,0)"/>
<path d="M0 0 C2 1 2 1 2 1 Z " fill="#D9B567" transform="translate(680,680)"/>
<path d="M0 0 C2 1 2 1 2 1 Z " fill="#D5B465" transform="translate(638,680)"/>
<path d="M0 0 C2 1 2 1 2 1 Z " fill="#D6B466" transform="translate(571,670)"/>
<path d="" fill="#D9B665" transform="translate(0,0)"/>
<path d="" fill="#D9B564" transform="translate(0,0)"/>
<path d="" fill="#CDAB5F" transform="translate(0,0)"/>
<path d="" fill="#CDAA60" transform="translate(0,0)"/>
<path d="" fill="#D7B466" transform="translate(0,0)"/>
<path d="" fill="#D9B565" transform="translate(0,0)"/>
<path d="" fill="#D9B567" transform="translate(0,0)"/>
<path d="" fill="#D8B464" transform="translate(0,0)"/>
<path d="" fill="#D9B465" transform="translate(0,0)"/>
<path d="M0 0 C2 1 2 1 2 1 Z " fill="#D9B566" transform="translate(683,581)"/>
<path d="M0 0 C2 1 2 1 2 1 Z " fill="#D9B667" transform="translate(681,580)"/>
<path d="" fill="#CDAC61" transform="translate(0,0)"/>
<path d="M0 0 C2 1 2 1 2 1 Z " fill="#D8B466" transform="translate(593,560)"/>
<path d="" fill="#D9B665" transform="translate(0,0)"/>
<path d="M0 0 C2 1 2 1 2 1 Z " fill="#DAB666" transform="translate(433,536)"/>
<path d="" fill="#D9B565" transform="translate(0,0)"/>
<path d="M0 0 C2 1 2 1 2 1 Z " fill="#D9B464" transform="translate(727,509)"/>
<path d="M0 0 C2 1 2 1 2 1 Z " fill="#D9B566" transform="translate(720,509)"/>
<path d="M0 0 C2 1 2 1 2 1 Z " fill="#D9B666" transform="translate(488,509)"/>
<path d="M0 0 C2 1 2 1 2 1 Z " fill="#DBB665" transform="translate(472,509)"/>
<path d="M0 0 C2 1 2 1 2 1 Z " fill="#DAB565" transform="translate(447,509)"/>
<path d="M0 0 C2 1 2 1 2 1 Z " fill="#DAB766" transform="translate(432,509)"/>
<path d="M0 0 C2 1 2 1 2 1 Z " fill="#DAB565" transform="translate(412,509)"/>
<path d="M0 0 C2 1 2 1 2 1 Z " fill="#DAB565" transform="translate(408,509)"/>
<path d="M0 0 C2 1 2 1 2 1 Z " fill="#DAB666" transform="translate(392,509)"/>
<path d="M0 0 C2 1 2 1 2 1 Z " fill="#DBB665" transform="translate(355,509)"/>
<path d="M0 0 C2 1 2 1 2 1 Z " fill="#D9B563" transform="translate(351,509)"/>
<path d="M0 0 C2 1 2 1 2 1 Z " fill="#D9B463" transform="translate(347,509)"/>
<path d="M0 0 C2 1 2 1 2 1 Z " fill="#D9B565" transform="translate(311,509)"/>
<path d="M0 0 C2 1 2 1 2 1 Z " fill="#DAB466" transform="translate(296,509)"/>
<path d="M0 0 C2 1 2 1 2 1 Z " fill="#D9B464" transform="translate(279,509)"/>
<path d="M0 0 C2 1 2 1 2 1 Z " fill="#D6B364" transform="translate(264,509)"/>
<path d="" fill="#D7B467" transform="translate(0,0)"/>
<path d="M0 0 C2 1 2 1 2 1 Z " fill="#DBB767" transform="translate(660,444)"/>
<path d="" fill="#D8B664" transform="translate(0,0)"/>
<path d="" fill="#DAB566" transform="translate(0,0)"/>
<path d="" fill="#D3B164" transform="translate(0,0)"/>
<path d="" fill="#D5B264" transform="translate(0,0)"/>
<path d="" fill="#D8B466" transform="translate(0,0)"/>
<path d="" fill="#D7B364" transform="translate(0,0)"/>
<path d="" fill="#D4B264" transform="translate(0,0)"/>
<path d="" fill="#D9B565" transform="translate(0,0)"/>
<path d="" fill="#D9B364" transform="translate(0,0)"/>
<path d="" fill="#D7B366" transform="translate(0,0)"/>
<path d="" fill="#D9B464" transform="translate(0,0)"/>
<path d="" fill="#D5B165" transform="translate(0,0)"/>
<path d="" fill="#D4B165" transform="translate(0,0)"/>
<path d="M0 0 C2 1 2 1 2 1 Z " fill="#D7B466" transform="translate(689,301)"/>
<path d="" fill="#D8B464" transform="translate(0,0)"/>
<path d="M0 0 C2 1 2 1 2 1 Z " fill="#D7B567" transform="translate(648,294)"/>
<path d="M0 0 C2 1 2 1 2 1 Z " fill="#D7B166" transform="translate(656,293)"/>
<path d="" fill="#D6B162" transform="translate(0,0)"/>
<path d="M0 0 C2 1 2 1 2 1 Z " fill="#CCA95F" transform="translate(305,136)"/>
<path d="M0 0 C2 1 2 1 2 1 Z " fill="#D4B163" transform="translate(433,133)"/>
<path d="M0 0 C2 1 2 1 2 1 Z " fill="#D3AF62" transform="translate(578,131)"/>
<path d="M0 0 C2 1 2 1 2 1 Z " fill="#C9A75D" transform="translate(320,128)"/>
<path d="M0 0 C2 1 2 1 2 1 Z " fill="#D4B062" transform="translate(476,127)"/>
<path d="M0 0 C2 1 2 1 2 1 Z " fill="#D4B062" transform="translate(528,126)"/>
<path d="M0 0 C2 1 2 1 2 1 Z " fill="#D4AF63" transform="translate(491,126)"/>
<path d="M0 0 C2 1 2 1 2 1 Z " fill="#D3B163" transform="translate(488,126)"/>
<path d="M0 0 C2 1 2 1 2 1 Z " fill="#D4B163" transform="translate(484,126)"/>
<path d="M0 0 C2 1 2 1 2 1 Z " fill="#CBAA5D" transform="translate(338,120)"/>
<path d="M0 0 C2 1 2 1 2 1 Z " fill="#CDAB60" transform="translate(409,96)"/>
<path d="M0 0 C2 1 2 1 2 1 Z " fill="#CDAC61" transform="translate(483,85)"/>
<path d="" fill="#CBAB5B" transform="translate(0,0)"/>
<path d="" fill="#CCAB5E" transform="translate(0,0)"/>
<path d="" fill="#CFAB5B" transform="translate(0,0)"/>
<path d="" fill="#CCA95D" transform="translate(0,0)"/>
<path d="" fill="#CBA75D" transform="translate(0,0)"/>
<path d="" fill="#CBA95C" transform="translate(0,0)"/>
<path d="" fill="#CAA95E" transform="translate(0,0)"/>
<path d="" fill="#CBA85E" transform="translate(0,0)"/>
<path d="" fill="#CCAA5E" transform="translate(0,0)"/>
<path d="" fill="#C9A95E" transform="translate(0,0)"/>
<path d="" fill="#CDAB5D" transform="translate(0,0)"/>
<path d="" fill="#CCA95C" transform="translate(0,0)"/>
<path d="" fill="#CDAA5E" transform="translate(0,0)"/>
<path d="" fill="#C9A85C" transform="translate(0,0)"/>
<path d="" fill="#CCAA5D" transform="translate(0,0)"/>
<path d="" fill="#CCA85C" transform="translate(0,0)"/>
<path d="" fill="#CAA75E" transform="translate(0,0)"/>
<path d="" fill="#D2AF60" transform="translate(0,0)"/>
<path d="" fill="#D3B061" transform="translate(0,0)"/>
<path d="" fill="#D2AF62" transform="translate(0,0)"/>
<path d="" fill="#D2AF5F" transform="translate(0,0)"/>
<path d="" fill="#CCA95E" transform="translate(0,0)"/>
<path d="" fill="#CBA85E" transform="translate(0,0)"/>
<path d="" fill="#C8A65B" transform="translate(0,0)"/>
<path d="" fill="#D0AF61" transform="translate(0,0)"/>
<path d="" fill="#D2B163" transform="translate(0,0)"/>
<path d="" fill="#C8A75D" transform="translate(0,0)"/>
<path d="" fill="#D7B165" transform="translate(0,0)"/>
<path d="" fill="#D3B262" transform="translate(0,0)"/>
<path d="" fill="#D4B063" transform="translate(0,0)"/>
<path d="" fill="#D6B263" transform="translate(0,0)"/>
<path d="" fill="#D4B262" transform="translate(0,0)"/>
<path d="" fill="#D7B563" transform="translate(0,0)"/>
<path d="" fill="#CBA95D" transform="translate(0,0)"/>
<path d="" fill="#D6B364" transform="translate(0,0)"/>
<path d="" fill="#D7B465" transform="translate(0,0)"/>
<path d="" fill="#CAA95D" transform="translate(0,0)"/>
<path d="" fill="#CBA95F" transform="translate(0,0)"/>
<path d="" fill="#CAA75E" transform="translate(0,0)"/>
<path d="" fill="#C8A75E" transform="translate(0,0)"/>
<path d="" fill="#CAA75E" transform="translate(0,0)"/>
<path d="" fill="#D8B464" transform="translate(0,0)"/>
<path d="" fill="#C9A65D" transform="translate(0,0)"/>
<path d="" fill="#CCAB5F" transform="translate(0,0)"/>
<path d="" fill="#D8B666" transform="translate(0,0)"/>
<path d="" fill="#D6B265" transform="translate(0,0)"/>
<path d="" fill="#D6B265" transform="translate(0,0)"/>
<path d="" fill="#CBA55C" transform="translate(0,0)"/>
<path d="" fill="#CBA85D" transform="translate(0,0)"/>
<path d="" fill="#CBA95B" transform="translate(0,0)"/>
<path d="" fill="#D2B263" transform="translate(0,0)"/>
<path d="" fill="#D5B165" transform="translate(0,0)"/>
<path d="" fill="#D5B363" transform="translate(0,0)"/>
<path d="" fill="#D2B063" transform="translate(0,0)"/>
<path d="" fill="#CAA85E" transform="translate(0,0)"/>
<path d="" fill="#D0AD61" transform="translate(0,0)"/>
<path d="" fill="#D4B163" transform="translate(0,0)"/>
<path d="" fill="#D7B467" transform="translate(0,0)"/>
<path d="" fill="#CBAB60" transform="translate(0,0)"/>
<path d="" fill="#D5B060" transform="translate(0,0)"/>
<path d="" fill="#CCAC5F" transform="translate(0,0)"/>
<path d="" fill="#D6B262" transform="translate(0,0)"/>
<path d="" fill="#D5B262" transform="translate(0,0)"/>
<path d="" fill="#D6B065" transform="translate(0,0)"/>
<path d="" fill="#D4AE61" transform="translate(0,0)"/>
<path d="" fill="#D6B264" transform="translate(0,0)"/>
<path d="" fill="#D5B167" transform="translate(0,0)"/>
<path d="" fill="#D6B062" transform="translate(0,0)"/>
<path d="" fill="#CAA85F" transform="translate(0,0)"/>
<path d="" fill="#D4B264" transform="translate(0,0)"/>
<path d="" fill="#D7B366" transform="translate(0,0)"/>
<path d="" fill="#D6B264" transform="translate(0,0)"/>
<path d="" fill="#D7B568" transform="translate(0,0)"/>
<path d="" fill="#D5B464" transform="translate(0,0)"/>
<path d="" fill="#D7B362" transform="translate(0,0)"/>
<path d="" fill="#D8B363" transform="translate(0,0)"/>
<path d="" fill="#D7B164" transform="translate(0,0)"/>
<path d="" fill="#D7B362" transform="translate(0,0)"/>
<path d="" fill="#CDAA5F" transform="translate(0,0)"/>
<path d="" fill="#D9B566" transform="translate(0,0)"/>
<path d="" fill="#D7B464" transform="translate(0,0)"/>
<path d="" fill="#CCAB5F" transform="translate(0,0)"/>
<path d="" fill="#DAB464" transform="translate(0,0)"/>
<path d="" fill="#D8B565" transform="translate(0,0)"/>
<path d="" fill="#D9B666" transform="translate(0,0)"/>
<path d="" fill="#D7B567" transform="translate(0,0)"/>
<path d="" fill="#D5B567" transform="translate(0,0)"/>
<path d="" fill="#D8B465" transform="translate(0,0)"/>
<path d="" fill="#D3B164" transform="translate(0,0)"/>
<path d="" fill="#CDAA5E" transform="translate(0,0)"/>
<path d="" fill="#CCAC60" transform="translate(0,0)"/>
<path d="" fill="#D8B567" transform="translate(0,0)"/>
<path d="" fill="#D8B666" transform="translate(0,0)"/>
<path d="" fill="#D8B568" transform="translate(0,0)"/>
<path d="" fill="#D8B464" transform="translate(0,0)"/>
<path d="" fill="#D1B263" transform="translate(0,0)"/>
<path d="" fill="#CCAB61" transform="translate(0,0)"/>
<path d="" fill="#DAB465" transform="translate(0,0)"/>
<path d="" fill="#D5B164" transform="translate(0,0)"/>
<path d="" fill="#D9B665" transform="translate(0,0)"/>
<path d="" fill="#D5B164" transform="translate(0,0)"/>
<path d="" fill="#CBAA5E" transform="translate(0,0)"/>
<path d="" fill="#CCAC5F" transform="translate(0,0)"/>
<path d="" fill="#D5B165" transform="translate(0,0)"/>
<path d="" fill="#CCAB62" transform="translate(0,0)"/>
<path d="" fill="#D7B367" transform="translate(0,0)"/>
<path d="" fill="#D7B263" transform="translate(0,0)"/>
<path d="" fill="#D8B668" transform="translate(0,0)"/>
<path d="" fill="#D8B368" transform="translate(0,0)"/>
<path d="" fill="#D7B162" transform="translate(0,0)"/>
<path d="" fill="#CDAA5F" transform="translate(0,0)"/>
<path d="" fill="#DAB668" transform="translate(0,0)"/>
<path d="" fill="#DAB666" transform="translate(0,0)"/>
<path d="" fill="#D7B467" transform="translate(0,0)"/>
<path d="" fill="#D5B163" transform="translate(0,0)"/>
<path d="" fill="#D4B365" transform="translate(0,0)"/>
<path d="" fill="#D7B265" transform="translate(0,0)"/>
<path d="" fill="#D7B262" transform="translate(0,0)"/>
<path d="" fill="#D7B466" transform="translate(0,0)"/>
<path d="" fill="#D9B666" transform="translate(0,0)"/>
<path d="" fill="#D1AC5F" transform="translate(0,0)"/>
<path d="" fill="#D8B566" transform="translate(0,0)"/>
<path d="" fill="#DAB565" transform="translate(0,0)"/>
<path d="" fill="#D5B165" transform="translate(0,0)"/>
<path d="" fill="#D8B568" transform="translate(0,0)"/>
<path d="" fill="#CCAA60" transform="translate(0,0)"/>
<path d="" fill="#D8B264" transform="translate(0,0)"/>
<path d="" fill="#D6B063" transform="translate(0,0)"/>
<path d="" fill="#DABA67" transform="translate(0,0)"/>
<path d="" fill="#D9B667" transform="translate(0,0)"/>
<path d="" fill="#D8B464" transform="translate(0,0)"/>
<path d="" fill="#D6B365" transform="translate(0,0)"/>
<path d="" fill="#D6B468" transform="translate(0,0)"/>
<path d="" fill="#CFAD61" transform="translate(0,0)"/>
<path d="" fill="#D9B668" transform="translate(0,0)"/>
<path d="" fill="#D7B767" transform="translate(0,0)"/>
<path d="" fill="#DAB465" transform="translate(0,0)"/>
<path d="" fill="#D6B465" transform="translate(0,0)"/>
<path d="" fill="#D5B166" transform="translate(0,0)"/>
<path d="" fill="#D1AF62" transform="translate(0,0)"/>
<path d="" fill="#D5B265" transform="translate(0,0)"/>
<path d="" fill="#D7B667" transform="translate(0,0)"/>
<path d="" fill="#DAB767" transform="translate(0,0)"/>
<path d="" fill="#D7B667" transform="translate(0,0)"/>
<path d="" fill="#D1AE62" transform="translate(0,0)"/>
<path d="" fill="#D4B366" transform="translate(0,0)"/>
<path d="" fill="#D3B264" transform="translate(0,0)"/>
<path d="" fill="#D9B565" transform="translate(0,0)"/>
<path d="" fill="#D9B767" transform="translate(0,0)"/>
<path d="" fill="#CFAE62" transform="translate(0,0)"/>
<path d="" fill="#D9B766" transform="translate(0,0)"/>
<path d="" fill="#DBB666" transform="translate(0,0)"/>
<path d="" fill="#CFAD64" transform="translate(0,0)"/>
<path d="" fill="#D9B568" transform="translate(0,0)"/>
<path d="" fill="#DBB668" transform="translate(0,0)"/>
<path d="" fill="#DAB765" transform="translate(0,0)"/>
<path d="" fill="#D6B364" transform="translate(0,0)"/>
<path d="" fill="#DAB465" transform="translate(0,0)"/>
<path d="" fill="#D8B464" transform="translate(0,0)"/>
<path d="" fill="#D9B565" transform="translate(0,0)"/>
<path d="" fill="#D8B366" transform="translate(0,0)"/>
<path d="" fill="#DAB565" transform="translate(0,0)"/>
<path d="" fill="#DBB567" transform="translate(0,0)"/>
<path d="" fill="#DBB765" transform="translate(0,0)"/>
<path d="" fill="#D0AD60" transform="translate(0,0)"/>
<path d="" fill="#D4B163" transform="translate(0,0)"/>
<path d="" fill="#D7B466" transform="translate(0,0)"/>
<path d="" fill="#D8B466" transform="translate(0,0)"/>
<path d="" fill="#D8B464" transform="translate(0,0)"/>
<path d="" fill="#D9B566" transform="translate(0,0)"/>
<path d="" fill="#DAB665" transform="translate(0,0)"/>
<path d="" fill="#DBB564" transform="translate(0,0)"/>
<path d="" fill="#DBB465" transform="translate(0,0)"/>
<path d="" fill="#DAB565" transform="translate(0,0)"/>
<path d="" fill="#DCB765" transform="translate(0,0)"/>
<path d="" fill="#DBB465" transform="translate(0,0)"/>
<path d="" fill="#DBB566" transform="translate(0,0)"/>
<path d="" fill="#DBB766" transform="translate(0,0)"/>
<path d="" fill="#DBB766" transform="translate(0,0)"/>
<path d="" fill="#D9B566" transform="translate(0,0)"/>
<path d="" fill="#DAB666" transform="translate(0,0)"/>
<path d="" fill="#D8B664" transform="translate(0,0)"/>
<path d="" fill="#D9B667" transform="translate(0,0)"/>
<path d="" fill="#DAB665" transform="translate(0,0)"/>
<path d="" fill="#D9B565" transform="translate(0,0)"/>
<path d="" fill="#DAB766" transform="translate(0,0)"/>
<path d="" fill="#DBB667" transform="translate(0,0)"/>
<path d="" fill="#DBB666" transform="translate(0,0)"/>
<path d="" fill="#DCB666" transform="translate(0,0)"/>
<path d="" fill="#DCB766" transform="translate(0,0)"/>
<path d="" fill="#DBB564" transform="translate(0,0)"/>
<path d="" fill="#DAB865" transform="translate(0,0)"/>
<path d="" fill="#DAB563" transform="translate(0,0)"/>
<path d="" fill="#DBB566" transform="translate(0,0)"/>
<path d="" fill="#DAB564" transform="translate(0,0)"/>
<path d="" fill="#DAB666" transform="translate(0,0)"/>
<path d="" fill="#DCB666" transform="translate(0,0)"/>
<path d="" fill="#DAB466" transform="translate(0,0)"/>
<path d="" fill="#D9B565" transform="translate(0,0)"/>
<path d="" fill="#DBB666" transform="translate(0,0)"/>
<path d="" fill="#D9B566" transform="translate(0,0)"/>
<path d="" fill="#DAB665" transform="translate(0,0)"/>
<path d="" fill="#DAB665" transform="translate(0,0)"/>
<path d="" fill="#D9B666" transform="translate(0,0)"/>
<path d="" fill="#DBB567" transform="translate(0,0)"/>
<path d="" fill="#D9B465" transform="translate(0,0)"/>
<path d="" fill="#D3AE61" transform="translate(0,0)"/>
<path d="" fill="#D6B367" transform="translate(0,0)"/>
<path d="" fill="#D2AF61" transform="translate(0,0)"/>
<path d="" fill="#D0AD62" transform="translate(0,0)"/>
<path d="" fill="#DCB868" transform="translate(0,0)"/>
<path d="" fill="#DCB868" transform="translate(0,0)"/>
<path d="" fill="#D9B566" transform="translate(0,0)"/>
<path d="" fill="#DBB867" transform="translate(0,0)"/>
<path d="" fill="#DCB968" transform="translate(0,0)"/>
<path d="" fill="#D7B667" transform="translate(0,0)"/>
<path d="" fill="#D4B064" transform="translate(0,0)"/>
<path d="" fill="#CFAB61" transform="translate(0,0)"/>
<path d="" fill="#D1AE63" transform="translate(0,0)"/>
<path d="" fill="#DBB766" transform="translate(0,0)"/>
<path d="" fill="#DCB467" transform="translate(0,0)"/>
<path d="" fill="#CFAC63" transform="translate(0,0)"/>
<path d="" fill="#CEAC62" transform="translate(0,0)"/>
<path d="" fill="#D2B165" transform="translate(0,0)"/>
<path d="" fill="#CEAD62" transform="translate(0,0)"/>
<path d="" fill="#D5B364" transform="translate(0,0)"/>
<path d="" fill="#DAB766" transform="translate(0,0)"/>
<path d="" fill="#DCB768" transform="translate(0,0)"/>
<path d="" fill="#DAB667" transform="translate(0,0)"/>
<path d="" fill="#DBB769" transform="translate(0,0)"/>
<path d="" fill="#D7B565" transform="translate(0,0)"/>
<path d="" fill="#D5B367" transform="translate(0,0)"/>
<path d="" fill="#D6B566" transform="translate(0,0)"/>
<path d="" fill="#D9B264" transform="translate(0,0)"/>
<path d="" fill="#D7B566" transform="translate(0,0)"/>
<path d="" fill="#D8B567" transform="translate(0,0)"/>
<path d="" fill="#D9B565" transform="translate(0,0)"/>
<path d="" fill="#D7B666" transform="translate(0,0)"/>
<path d="" fill="#D9B768" transform="translate(0,0)"/>
<path d="" fill="#CDAA60" transform="translate(0,0)"/>
<path d="" fill="#D6B167" transform="translate(0,0)"/>
<path d="" fill="#CDAE61" transform="translate(0,0)"/>
<path d="" fill="#CFAB61" transform="translate(0,0)"/>
<path d="" fill="#CFAC62" transform="translate(0,0)"/>
<path d="" fill="#D9B769" transform="translate(0,0)"/>
<path d="" fill="#D9B567" transform="translate(0,0)"/>
<path d="" fill="#D4B267" transform="translate(0,0)"/>
<path d="" fill="#D7B668" transform="translate(0,0)"/>
<path d="" fill="#CDAD61" transform="translate(0,0)"/>
<path d="" fill="#D7B464" transform="translate(0,0)"/>
<path d="" fill="#D8B467" transform="translate(0,0)"/>
<path d="" fill="#D9B367" transform="translate(0,0)"/>
<path d="" fill="#D8B364" transform="translate(0,0)"/>
<path d="" fill="#D7B564" transform="translate(0,0)"/>
<path d="" fill="#CBA960" transform="translate(0,0)"/>
<path d="" fill="#D9B567" transform="translate(0,0)"/>
<path d="" fill="#D7B463" transform="translate(0,0)"/>
<path d="" fill="#D9B665" transform="translate(0,0)"/>
<path d="" fill="#DAB869" transform="translate(0,0)"/>
<path d="" fill="#D4B064" transform="translate(0,0)"/>
<path d="" fill="#D8B768" transform="translate(0,0)"/>
<path d="" fill="#D3B264" transform="translate(0,0)"/>
<path d="" fill="#DBB768" transform="translate(0,0)"/>
<path d="" fill="#D8B465" transform="translate(0,0)"/>
<path d="" fill="#D9B668" transform="translate(0,0)"/>
<path d="" fill="#D3B164" transform="translate(0,0)"/>
<path d="" fill="#D9B464" transform="translate(0,0)"/>
<path d="" fill="#D8B668" transform="translate(0,0)"/>
<path d="" fill="#D8B465" transform="translate(0,0)"/>
<path d="" fill="#D8B364" transform="translate(0,0)"/>
<path d="" fill="#D6B465" transform="translate(0,0)"/>
<path d="" fill="#D8B667" transform="translate(0,0)"/>
<path d="" fill="#D8B567" transform="translate(0,0)"/>
<path d="" fill="#DAB566" transform="translate(0,0)"/>
<path d="" fill="#D7B568" transform="translate(0,0)"/>
<path d="" fill="#D7B465" transform="translate(0,0)"/>
<path d="" fill="#D8B465" transform="translate(0,0)"/>
<path d="" fill="#CEAC62" transform="translate(0,0)"/>
<path d="" fill="#D6B365" transform="translate(0,0)"/>
<path d="" fill="#D9B667" transform="translate(0,0)"/>
<path d="" fill="#D8B467" transform="translate(0,0)"/>
<path d="" fill="#D4B267" transform="translate(0,0)"/>
<path d="" fill="#D9B364" transform="translate(0,0)"/>
<path d="" fill="#D3B165" transform="translate(0,0)"/>
<path d="" fill="#D8B366" transform="translate(0,0)"/>
<path d="" fill="#D9B467" transform="translate(0,0)"/>
<path d="" fill="#D9B564" transform="translate(0,0)"/>
<path d="" fill="#D5B266" transform="translate(0,0)"/>
<path d="" fill="#D6B464" transform="translate(0,0)"/>
<path d="" fill="#D5B366" transform="translate(0,0)"/>
<path d="" fill="#D5B366" transform="translate(0,0)"/>
<path d="" fill="#C9A860" transform="translate(0,0)"/>
<path d="" fill="#C9A961" transform="translate(0,0)"/>
<path d="" fill="#D9B467" transform="translate(0,0)"/>
<path d="" fill="#D6B566" transform="translate(0,0)"/>
<path d="" fill="#C6A55E" transform="translate(0,0)"/>
<path d="" fill="#C9A55F" transform="translate(0,0)"/>
<path d="" fill="#D6B368" transform="translate(0,0)"/>
<path d="" fill="#D9B567" transform="translate(0,0)"/>
<path d="" fill="#D9B466" transform="translate(0,0)"/>
<path d="" fill="#D6B465" transform="translate(0,0)"/>
<path d="" fill="#D7B364" transform="translate(0,0)"/>
<path d="" fill="#CCAB61" transform="translate(0,0)"/>
<path d="" fill="#D8B468" transform="translate(0,0)"/>
<path d="" fill="#D6B266" transform="translate(0,0)"/>
<path d="" fill="#D6B566" transform="translate(0,0)"/>
<path d="" fill="#D7B665" transform="translate(0,0)"/>
<path d="" fill="#D4B265" transform="translate(0,0)"/>
<path d="" fill="#D9B566" transform="translate(0,0)"/>
<path d="" fill="#D6B466" transform="translate(0,0)"/>
<path d="" fill="#D3B065" transform="translate(0,0)"/>
<path d="" fill="#D4B266" transform="translate(0,0)"/>
<path d="" fill="#D6B160" transform="translate(0,0)"/>
<path d="" fill="#D7B365" transform="translate(0,0)"/>
<path d="" fill="#D6B062" transform="translate(0,0)"/>
<path d="" fill="#D6B367" transform="translate(0,0)"/>
<path d="" fill="#D4B264" transform="translate(0,0)"/>
<path d="" fill="#D6B263" transform="translate(0,0)"/>
<path d="" fill="#D7B364" transform="translate(0,0)"/>
<path d="" fill="#D5B063" transform="translate(0,0)"/>
<path d="" fill="#D4B062" transform="translate(0,0)"/>
<path d="" fill="#D5B165" transform="translate(0,0)"/>
<path d="" fill="#D3B364" transform="translate(0,0)"/>
<path d="" fill="#D4B165" transform="translate(0,0)"/>
<path d="" fill="#CFAA60" transform="translate(0,0)"/>
<path d="" fill="#D4B060" transform="translate(0,0)"/>
<path d="" fill="#D3AF60" transform="translate(0,0)"/>
<path d="" fill="#D6B365" transform="translate(0,0)"/>
<path d="" fill="#D1AC5F" transform="translate(0,0)"/>
<path d="" fill="#CEAD5F" transform="translate(0,0)"/>
<path d="" fill="#CAA95D" transform="translate(0,0)"/>
<path d="" fill="#D7B465" transform="translate(0,0)"/>
<path d="" fill="#CCAA5F" transform="translate(0,0)"/>
<path d="" fill="#CCAA5E" transform="translate(0,0)"/>
<path d="" fill="#D7B465" transform="translate(0,0)"/>
<path d="" fill="#CCAA5F" transform="translate(0,0)"/>
<path d="" fill="#D6B366" transform="translate(0,0)"/>
<path d="" fill="#CBA95F" transform="translate(0,0)"/>
<path d="" fill="#D6B567" transform="translate(0,0)"/>
<path d="" fill="#C8A95F" transform="translate(0,0)"/>
<path d="" fill="#CBA95D" transform="translate(0,0)"/>
<path d="" fill="#CDAB5E" transform="translate(0,0)"/>
<path d="" fill="#D3B166" transform="translate(0,0)"/>
<path d="" fill="#CAAA5E" transform="translate(0,0)"/>
<path d="" fill="#D4B164" transform="translate(0,0)"/>
<path d="" fill="#D5B063" transform="translate(0,0)"/>
<path d="" fill="#C9A85F" transform="translate(0,0)"/>
<path d="" fill="#CDAB5D" transform="translate(0,0)"/>
<path d="" fill="#D3B062" transform="translate(0,0)"/>
<path d="" fill="#D4B064" transform="translate(0,0)"/>
<path d="" fill="#CBAB5E" transform="translate(0,0)"/>
<path d="" fill="#D5AF62" transform="translate(0,0)"/>
<path d="" fill="#D5B363" transform="translate(0,0)"/>
<path d="" fill="#D4B263" transform="translate(0,0)"/>
<path d="" fill="#D4B364" transform="translate(0,0)"/>
<path d="" fill="#C9A65B" transform="translate(0,0)"/>
<path d="" fill="#D4AF62" transform="translate(0,0)"/>
<path d="" fill="#D3B061" transform="translate(0,0)"/>
<path d="" fill="#D4B061" transform="translate(0,0)"/>
<path d="" fill="#CCAB5E" transform="translate(0,0)"/>
<path d="" fill="#CAAC60" transform="translate(0,0)"/>
<path d="" fill="#CBAA60" transform="translate(0,0)"/>
<path d="" fill="#CAA95D" transform="translate(0,0)"/>
<path d="" fill="#CDAB60" transform="translate(0,0)"/>
<path d="" fill="#CFAC5F" transform="translate(0,0)"/>
<path d="" fill="#CEAC60" transform="translate(0,0)"/>
<path d="" fill="#CEA960" transform="translate(0,0)"/>
<path d="" fill="#CDAC60" transform="translate(0,0)"/>
</svg>
